# xmcd
#
# Track frame offsets:
#	150
#	24643
#	69044
#	111268
#	132396
#	163343
#	180282
#
# Disc length: 3121 seconds
#
# Revision: 1
# Processed by: cddbd v1.4b42PL0 Copyright (c) Steve Scherf et al.
# Submitted via: audiograbber 1.80
#
DISCID=570c2f07
DTITLE=Phish - Junta - disc 1
DYEAR=1900
DGENRE=
TTITLE0=Fee
TTITLE1=You Enjoy Myself
TTITLE2=Esther
TTITLE3=Golgi Apparatus
TTITLE4=Foam
TTITLE5=Dinner And A Movie
TTITLE6=The Divided Sky
EXTD=
EXTT0=
EXTT1=
EXTT2=
EXTT3=
EXTT4=
EXTT5=
EXTT6=
PLAYORDER=
